<svg id="Layer_1" data-name="Layer 1" xmlns="http://www.w3.org/2000/svg" viewBox="0 0 240 240"><defs><style>.cls-1{fill:#327df7;}</style></defs><path class="cls-1" d="M24,239.5A23.52,23.52,0,0,1,.5,216V24A23.52,23.52,0,0,1,24,.5H216A23.52,23.52,0,0,1,239.5,24V216A23.52,23.52,0,0,1,216,239.5Zm142.12-78.85.41,0c1,.08,2.95.19,6,.34s6.49.21,10.31.21a92.85,92.85,0,0,0,15.8-1.35,44.74,44.74,0,0,0,13.24-4.2,27.67,27.67,0,0,0,9.72-8.17,21.21,21.21,0,0,0,.66-22.63,25.5,25.5,0,0,0-8.83-8.16c-2.42-1.39-4.91-2.67-7.41-3.81s-4.69-2.17-6.54-3.1a20.66,20.66,0,0,1-5.83-4.12,6,6,0,0,1-1.59-3.92A5.4,5.4,0,0,1,193.52,98a9,9,0,0,1,4-2.42,34.59,34.59,0,0,1,5.94-1.45,42.52,42.52,0,0,1,6.49-.48c3.26,0,6,.09,8.19.27s3.82.29,4.85.34l.59,0-2.2-17.39-.39,0c-.67-.08-2.27-.17-4.89-.28s-5.71-.15-9.27-.15a72.42,72.42,0,0,0-19.73,2.4,33.1,33.1,0,0,0-13.32,6.89,21.18,21.18,0,0,0-5.2,6.58,18.74,18.74,0,0,0-2,8.68,20.3,20.3,0,0,0,2.66,10.26,24.07,24.07,0,0,0,8.75,8.29,62.37,62.37,0,0,0,7.53,3.94c2.91,1.3,5.23,2.38,6.91,3.22a19.61,19.61,0,0,1,5.7,4,6.8,6.8,0,0,1,1.59,4.59,6.08,6.08,0,0,1-1.43,4.1,11.1,11.1,0,0,1-5.17,2.81,41.86,41.86,0,0,1-7,1.32,65.38,65.38,0,0,1-7.09.49c-2.55,0-5.47-.1-8.67-.28s-5.06-.31-5.53-.39l-.65-.11Zm-38.55-.76q9,0,18.7.06l12,.06h.5V142.29h-.5l-9.51.06q-7.74.06-15.78.06l-6.33,0-5.78,0q0-2.11-.06-10.15c0-6.09-.07-13.15-.07-21q0-7.87.07-17t.12-16.48v-.5H99.66v.5q.06,3.55.16,13.16c.06,6.42.09,15.06.09,25.68,0,5.87,0,12.86-.09,20.77s-.12,15.27-.16,22.11v.5h.5q6.48,0,13.34-.06T127.57,159.89ZM42.05,95c.08,6.48.12,11.68.12,15.49v14.34q0,11.41-.06,20.78T42,159.5V160H63.19v-.51Q63.13,154.75,63,145c-.06-6.49-.1-13.28-.1-20.17,0-6.14,0-11.19.07-15s.09-8.72.17-14.88c6.48,0,12.16,0,16.9.06s8.06.06,9.77.06h.5V77.41h-.5l-13.7,0q-11.33,0-23.72,0l-21.54,0-15.56,0h-.5V95.07h.5L24.67,95C29.84,95,35.69,95,42.05,95Z"/><path class="cls-1" d="M216,1a23,23,0,0,1,23,23V216a23,23,0,0,1-23,23H24A23,23,0,0,1,1,216V24A23,23,0,0,1,24,1H216M179,143.44c-2.54,0-5.45-.1-8.64-.28-4-.22-5.17-.33-5.48-.38l-1.3-.22.14,1.32,1.84,16.41.09.82.82.07c1,.08,3,.19,6,.34s6.5.21,10.33.21a93.79,93.79,0,0,0,15.88-1.35,45.07,45.07,0,0,0,13.39-4.26,28,28,0,0,0,9.9-8.32,21.7,21.7,0,0,0,.67-23.18,25.63,25.63,0,0,0-9-8.33c-2.42-1.4-4.93-2.69-7.44-3.83s-4.68-2.17-6.51-3.09a20.27,20.27,0,0,1-5.69-4,5.37,5.37,0,0,1-1.47-3.59,4.92,4.92,0,0,1,1.3-3.47A8.4,8.4,0,0,1,197.71,96a35.21,35.21,0,0,1,5.85-1.43,42.76,42.76,0,0,1,6.41-.47c3.24,0,6,.09,8.15.27s3.83.29,4.87.34l1.18,0L224,93.59l-2.08-16.42-.09-.77-.77-.09c-.69-.09-2.31-.18-4.94-.29s-5.72-.15-9.29-.15A72.58,72.58,0,0,0,187,78.29a33.65,33.65,0,0,0-13.5,7A21.85,21.85,0,0,0,168.15,92a19.32,19.32,0,0,0-2,8.91,20.82,20.82,0,0,0,2.73,10.51,24.57,24.57,0,0,0,8.91,8.46,61.43,61.43,0,0,0,7.6,4c2.9,1.3,5.21,2.39,6.88,3.22a18.58,18.58,0,0,1,5.55,3.88,6.24,6.24,0,0,1,1.47,4.26A5.52,5.52,0,0,1,198,139a10.64,10.64,0,0,1-4.93,2.66,41,41,0,0,1-7,1.3,64.25,64.25,0,0,1-7,.49M99.16,160.51h1c4.26,0,8.75,0,13.35-.06s9.28-.06,14.06-.06c6,0,12.28,0,18.7.06l12,.06h1V141.79h-1l-9.51.06c-5.06,0-10.36.06-15.78.06l-6.33,0-5.29,0c0-1.54,0-4.6,0-9.66,0-6.08-.07-13.13-.07-21,0-5.27,0-11,.07-17s.08-11.55.12-16.48v-1H99.15v1c0,2.4.1,6.82.16,13.16s.09,15.05.09,25.67c0,5.87,0,12.86-.09,20.76s-.12,15.27-.16,22.12v1M52.43,77l-21.54,0-15.56,0h-1V95.57h1l9.34-.06c5,0,10.72-.06,16.89-.06.07,6.24.11,11.28.11,15v14.34c0,7.47,0,14.46-.06,20.78,0,6.16-.08,10.85-.12,13.94l0,1H63.7v-1c0-3.17-.09-8-.15-14.49s-.1-13.28-.1-20.17c0-6.14,0-11.18.07-15q0-5.49.17-14.39c6.27,0,11.78,0,16.39.06s8,.06,9.78.06h1V76.91h-1l-13.71,0q-11.31,0-23.71,0M216,0H24A24.07,24.07,0,0,0,0,24V216a24.07,24.07,0,0,0,24,24H216a24.07,24.07,0,0,0,24-24V24A24.07,24.07,0,0,0,216,0ZM179,144.44a66.35,66.35,0,0,0,7.14-.49,42.71,42.71,0,0,0,7.14-1.34,11.4,11.4,0,0,0,5.41-3,6.53,6.53,0,0,0,1.55-4.42,7.25,7.25,0,0,0-1.71-4.91,19.55,19.55,0,0,0-5.86-4.12q-2.56-1.29-6.92-3.24a60.88,60.88,0,0,1-7.48-3.9,23.54,23.54,0,0,1-8.58-8.12,19.73,19.73,0,0,1-2.59-10A18.35,18.35,0,0,1,169,92.46a20.63,20.63,0,0,1,5.1-6.43q4.81-4.4,13.12-6.78a71.4,71.4,0,0,1,19.59-2.38c3.58,0,6.67,0,9.25.15s4.2.2,4.85.28L223,93.72c-1,0-2.63-.16-4.82-.34s-5-.27-8.24-.27a43.58,43.58,0,0,0-6.57.48,36.15,36.15,0,0,0-6,1.47,9.48,9.48,0,0,0-4.24,2.56,6,6,0,0,0-1.56,4.15A6.38,6.38,0,0,0,193.3,106a21,21,0,0,0,6,4.25c1.87.93,4.05,2,6.56,3.11s5,2.4,7.35,3.78a24.75,24.75,0,0,1,8.67,8,20.72,20.72,0,0,1-.64,22.06,27.05,27.05,0,0,1-9.56,8,43.93,43.93,0,0,1-13.09,4.15,92.73,92.73,0,0,1-15.71,1.34q-5.75,0-10.29-.21c-3-.14-5-.26-6-.34l-1.83-16.42c.49.09,2.35.22,5.58.4s6.14.28,8.7.28ZM120.43,77.79q-.06,7.38-.12,16.48t-.07,17q0,11.73.07,21t.06,10.65l6.27,0,6.34,0q8,0,15.78-.06l9.51-.06v16.72l-12-.06q-9.67-.06-18.71-.06-7.2,0-14.07.06t-13.34.06q.06-10.26.16-22.11t.09-20.77q0-16.06-.09-25.68t-.16-13.16Zm-68,.18q12.39,0,23.72,0l13.7,0V94.57q-2.56,0-9.77-.06t-17.39-.06q-.12,9.58-.18,15.38t-.07,15q0,10.44.1,20.18t.15,14.49H42.49q.06-4.57.12-13.94t.06-20.79V110.44q0-5.93-.12-16-10,0-17.89.06l-9.33.06V77.91l15.56,0,21.54,0Z"/></svg>