<svg id="Layer_1" data-name="Layer 1" xmlns="http://www.w3.org/2000/svg" viewBox="0 0 600 240"><defs><style>.cls-1{fill:#f2f2f2;}.cls-2{fill:#327df7;}.cls-3{opacity:0.9;}</style></defs><rect class="cls-1" width="600" height="240" rx="24"/><rect class="cls-2" x="0.5" y="0.5" width="239" height="239" rx="23.5"/><path class="cls-2" d="M221,1a23,23,0,0,1,23,23V216a23,23,0,0,1-23,23H29A23,23,0,0,1,6,216V24A23,23,0,0,1,29,1H221m0-1H29A24.07,24.07,0,0,0,5,24V216a24.07,24.07,0,0,0,24,24H221a24.07,24.07,0,0,0,24-24V24A24.07,24.07,0,0,0,221,0Z" transform="translate(-4.97)"/><g class="cls-3"><path class="cls-1" d="M91.81,94.57c-1.7,0-5,0-9.76-.06s-10.6-.06-17.4-.06q-.12,9.58-.18,15.38t-.06,15q0,10.44.09,20.18t.15,14.49H44.45q.06-4.57.12-13.94t.06-20.79V110.44q0-5.93-.12-16-10,0-17.88.06l-9.34.06V77.91l15.56,0L54.4,78q12.39,0,23.71,0l13.7,0Z" transform="translate(-4.97)"/><path class="cls-1" d="M160.23,159.51l-12-.06q-9.68-.06-18.71-.06-7.2,0-14.06.06t-13.34.06q.06-10.26.15-22.11t.09-20.77q0-16.06-.09-25.68t-.15-13.16h20.26q-.06,7.38-.12,16.48t-.06,17q0,11.73.06,21t.06,10.65l6.28,0,6.34,0q8,0,15.78-.06l9.5-.06Z" transform="translate(-4.97)"/><path class="cls-1" d="M226.7,135.65a19.19,19.19,0,0,1-3.51,11.56,27,27,0,0,1-9.55,8,43.93,43.93,0,0,1-13.09,4.15,92.84,92.84,0,0,1-15.72,1.34q-5.73,0-10.28-.21c-3-.14-5-.26-6-.34l-1.84-16.42q.74.13,5.59.4c3.23.18,6.13.28,8.7.28a66.35,66.35,0,0,0,7.14-.49,42.71,42.71,0,0,0,7.14-1.34,11.41,11.41,0,0,0,5.4-3,6.49,6.49,0,0,0,1.56-4.42,7.25,7.25,0,0,0-1.71-4.91,19.55,19.55,0,0,0-5.86-4.12q-2.57-1.29-6.93-3.24a61.62,61.62,0,0,1-7.48-3.9,23.58,23.58,0,0,1-8.57-8.12,19.74,19.74,0,0,1-2.6-10A18.36,18.36,0,0,1,171,92.46,20.74,20.74,0,0,1,176.1,86q4.83-4.4,13.13-6.78a71.35,71.35,0,0,1,19.59-2.38q5.37,0,9.24.15c2.59.1,4.21.2,4.86.28L225,93.72c-1,0-2.62-.16-4.82-.34s-4.94-.27-8.24-.27a43.45,43.45,0,0,0-6.56.48,35.91,35.91,0,0,0-6,1.47,9.42,9.42,0,0,0-4.24,2.56,6,6,0,0,0-1.56,4.15,6.38,6.38,0,0,0,1.71,4.24,20.93,20.93,0,0,0,6,4.25q2.81,1.39,6.56,3.11c2.5,1.14,5,2.4,7.36,3.78a24.8,24.8,0,0,1,8.66,8A19.28,19.28,0,0,1,226.7,135.65Z" transform="translate(-4.97)"/></g><g class="cls-3"><path class="cls-2" d="M313.2,128.12H270.84a16.09,16.09,0,0,0,2.66,8.7,18.53,18.53,0,0,0,7.9,6.5,33.05,33.05,0,0,0,7.84,2.35,54,54,0,0,0,9.07.7q3.9,0,6.77-.12l4.22-.18-1.9,13.36c-.85.08-2.29.18-4.3.28s-4.32.15-6.93.15a69.13,69.13,0,0,1-18.89-2.35,38.58,38.58,0,0,1-14.07-7.11,30.64,30.64,0,0,1-7.87-10,28.6,28.6,0,0,1-3-13.06,34.08,34.08,0,0,1,2.2-12.64,32.26,32.26,0,0,1,7.14-10.62,27,27,0,0,1,10.13-6.46,36.19,36.19,0,0,1,24.05-.4,23.74,23.74,0,0,1,8.91,5.58,26.25,26.25,0,0,1,6.41,10.59A47.79,47.79,0,0,1,313.2,128.12Zm-17.52-8.18a16.09,16.09,0,0,0-3.69-9.52,10.94,10.94,0,0,0-8.64-3.54,11.9,11.9,0,0,0-8.84,3.51,17.3,17.3,0,0,0-4.52,9.55Z" transform="translate(-4.97)"/><path class="cls-2" d="M386,159.31H367.28q0-1.89.09-9.31t.09-11.75q0-3,0-8.63c0-3.73-.05-6.54-.09-8.46-.08-3.74-.72-6.46-1.92-8.14s-3.33-2.54-6.38-2.54a20.68,20.68,0,0,0-7.17,1.56,52.57,52.57,0,0,0-7.79,3.69c0,.25,0,2.52,0,6.84s0,7.93,0,10.86q0,6.6.13,15.81t.12,10.07H325.53q0-1.4.09-8.54t.09-20.82q0-7.87-.06-16T325.53,97H343.9l-.06,5.8.06.12a71.68,71.68,0,0,1,12.27-5.37,37.14,37.14,0,0,1,11.41-2.13q8.43,0,13.4,5.22t5,14.06q0,7.4-.1,12.3t-.09,8.27q0,5.69.12,14T386,159.31Z" transform="translate(-4.97)"/><path class="cls-2" d="M445.53,146.37l-1.77,13.37c-.57,0-1.53.08-2.87.12s-3.1.06-5.25.06q-14.83,0-22.37-5.64t-7.54-16.82q0-7.14.06-13.21t.06-14H395.72V97h10.62V80.7h18V97h20.93V110.3H424.35c0,.89,0,2.68-.06,5.34s-.07,4.85-.07,6.56c0,1.34,0,3,0,4.91s0,4,0,6.08q0,6.65,3.72,9.92t13.73,3.26h3.79Z" transform="translate(-4.97)"/><path class="cls-2" d="M476,87.29H456.63V72.88H476Zm-.3,72H456.94q0-2.92.09-12.45t.09-17.82q0-7,0-14.71T456.94,97h18.74q-.06,8.73-.16,15.6t-.09,15.59q0,13.92.13,21.15T475.68,159.31Z" transform="translate(-4.97)"/><path class="cls-2" d="M545.81,126.87q0,14.94,0,23t0,9.39c-.66.09-3.3.28-7.94.58s-9.56.46-14.77.46a91.68,91.68,0,0,1-11.69-.86,41.6,41.6,0,0,1-11-2.74,22.27,22.27,0,0,1-8.79-6.44,14.62,14.62,0,0,1-3.18-9.37,15.32,15.32,0,0,1,3.39-10q3.39-4.16,10.59-6.84a57.88,57.88,0,0,1,11.9-2.87q7.08-1,12.82-1.46a9.74,9.74,0,0,0-1.74-5.4,10.07,10.07,0,0,0-5.28-3.27,28,28,0,0,0-5.4-1.13,64.8,64.8,0,0,0-7.05-.33q-3.72,0-6.35.12l-5.67.24,1.64-13.61,3.91-.15q2.69-.09,7.57-.09a70.24,70.24,0,0,1,17.18,1.77,28,28,0,0,1,11.57,5.85,21.68,21.68,0,0,1,6.31,9.06Q545.81,118.15,545.81,126.87Zm-17.7,11.26v-4.55q0-2.6-.06-5.46c-1.19,0-3.28.28-6.29.7A31.52,31.52,0,0,0,513.7,131a13.09,13.09,0,0,0-4.48,3,7,7,0,0,0-2.05,5.13,7.84,7.84,0,0,0,1.8,5.43,11.8,11.8,0,0,0,4.67,3.11,23.71,23.71,0,0,0,4.7,1.1,40.25,40.25,0,0,0,5.68.37l1.83,0c.69,0,1.42,0,2.2,0,0-.53,0-1.77,0-3.73S528.11,141,528.11,138.13Z" transform="translate(-4.97)"/><path class="cls-2" d="M581.63,159.31H562.9q0-4.27.09-18t.09-28.44q0-8.42,0-19.47t-.15-23.56h18.73q-.06,10.2-.12,21.37t-.06,20.93q0,15.87.09,28T581.63,159.31Z" transform="translate(-4.97)"/></g></svg>