<svg id="Layer_1" data-name="Layer 1" xmlns="http://www.w3.org/2000/svg" viewBox="0 0 240 240"><defs><style>.cls-1{fill:#327df7;}.cls-2{opacity:0.9;}.cls-3{fill:#fff;}</style></defs><rect class="cls-1" x="0.5" y="0.5" width="239" height="239" rx="23.5"/><path class="cls-1" d="M216,1a23,23,0,0,1,23,23V216a23,23,0,0,1-23,23H24A23,23,0,0,1,1,216V24A23,23,0,0,1,24,1H216m0-1H24A24.07,24.07,0,0,0,0,24V216a24.07,24.07,0,0,0,24,24H216a24.07,24.07,0,0,0,24-24V24A24.07,24.07,0,0,0,216,0Z"/><g class="cls-2"><path class="cls-3" d="M86.85,94.57q-2.56,0-9.77-.06t-17.39-.06q-.12,9.58-.18,15.38t-.07,15q0,10.44.1,20.18t.15,14.49H39.49q.06-4.57.12-13.94t.06-20.79V110.44q0-5.93-.12-16-10,0-17.89.06l-9.33.06V77.91l15.56,0,21.54,0q12.39,0,23.72,0l13.7,0Z"/><path class="cls-3" d="M155.27,159.51l-12-.06q-9.67-.06-18.71-.06-7.2,0-14.07.06t-13.34.06q.06-10.26.16-22.11t.09-20.77q0-16.06-.09-25.68t-.16-13.16h20.27q-.06,7.38-.12,16.48t-.07,17q0,11.73.07,21t.06,10.65l6.27,0,6.34,0q8,0,15.78-.06l9.51-.06Z"/><path class="cls-3" d="M221.74,135.65a19.19,19.19,0,0,1-3.51,11.56,27.05,27.05,0,0,1-9.56,8,43.93,43.93,0,0,1-13.09,4.15,92.73,92.73,0,0,1-15.71,1.34q-5.75,0-10.29-.21c-3-.14-5-.26-6-.34l-1.83-16.42c.49.09,2.35.22,5.58.4s6.14.28,8.7.28a66.35,66.35,0,0,0,7.14-.49,42.71,42.71,0,0,0,7.14-1.34,11.4,11.4,0,0,0,5.41-3,6.53,6.53,0,0,0,1.55-4.42,7.25,7.25,0,0,0-1.71-4.91,19.55,19.55,0,0,0-5.86-4.12q-2.56-1.29-6.92-3.24a60.88,60.88,0,0,1-7.48-3.9,23.54,23.54,0,0,1-8.58-8.12,19.73,19.73,0,0,1-2.59-10A18.35,18.35,0,0,1,166,92.46a20.63,20.63,0,0,1,5.1-6.43q4.81-4.4,13.12-6.78a71.4,71.4,0,0,1,19.59-2.38c3.58,0,6.67,0,9.25.15s4.2.2,4.85.28L220,93.72c-1,0-2.63-.16-4.82-.34s-5-.27-8.24-.27a43.58,43.58,0,0,0-6.57.48,36.15,36.15,0,0,0-6,1.47,9.48,9.48,0,0,0-4.24,2.56,6,6,0,0,0-1.56,4.15A6.38,6.38,0,0,0,190.3,106a21,21,0,0,0,6,4.25c1.87.93,4.05,2,6.56,3.11s5,2.4,7.35,3.78a24.75,24.75,0,0,1,8.67,8A19.37,19.37,0,0,1,221.74,135.65Z"/></g></svg>