<svg id="Layer_1" data-name="Layer 1" xmlns="http://www.w3.org/2000/svg" viewBox="0 0 585.99 240"><defs><style>.cls-1{fill:#327df7;}.cls-2{opacity:0.9;}</style></defs><path class="cls-1" d="M29,239.5A23.52,23.52,0,0,1,5.47,216V24A23.52,23.52,0,0,1,29,.5H221A23.53,23.53,0,0,1,244.47,24V216A23.53,23.53,0,0,1,221,239.5Zm142.11-78.85.41,0c1,.08,3,.19,6,.34s6.5.21,10.31.21a92.76,92.76,0,0,0,15.8-1.35,44.64,44.64,0,0,0,13.24-4.2,27.7,27.7,0,0,0,9.73-8.17,21.27,21.27,0,0,0,.66-22.63,25.45,25.45,0,0,0-8.84-8.16c-2.41-1.39-4.9-2.67-7.4-3.81s-4.7-2.17-6.55-3.1a20.59,20.59,0,0,1-5.82-4.12,5.93,5.93,0,0,1-1.59-3.92A5.4,5.4,0,0,1,198.49,98a9,9,0,0,1,4-2.42,34.59,34.59,0,0,1,5.94-1.45,42.39,42.39,0,0,1,6.48-.48c3.26,0,6,.09,8.2.27s3.82.29,4.84.34l.59,0-2.2-17.39-.38,0c-.67-.08-2.28-.17-4.9-.28s-5.7-.15-9.26-.15a72.42,72.42,0,0,0-19.73,2.4c-5.58,1.6-10.07,3.92-13.32,6.89a21.21,21.21,0,0,0-5.21,6.58,18.86,18.86,0,0,0-2,8.68,20.41,20.41,0,0,0,2.66,10.26,24.11,24.11,0,0,0,8.76,8.29,60.9,60.9,0,0,0,7.53,3.94c2.9,1.3,5.23,2.38,6.91,3.22a19.61,19.61,0,0,1,5.7,4,6.85,6.85,0,0,1,1.59,4.59,6.09,6.09,0,0,1-1.44,4.1,11.1,11.1,0,0,1-5.17,2.81,41.66,41.66,0,0,1-7.05,1.32,65.06,65.06,0,0,1-7.08.49c-2.56,0-5.47-.1-8.67-.28s-5.07-.31-5.53-.39l-.66-.11Zm-38.55-.76q9,0,18.71.06l12,.06h.5V142.29h-.5l-9.5.06q-7.74.06-15.78.06l-6.34,0-5.78,0q0-2.11-.06-10.15c0-6.09-.06-13.15-.06-21q0-7.87.06-17t.12-16.48v-.5H104.62v.5q.06,3.55.15,13.16c.06,6.42.09,15.06.09,25.68,0,5.87,0,12.86-.09,20.77s-.11,15.27-.15,22.11v.5h.5q6.47,0,13.34-.06T132.53,159.89ZM47,95c.08,6.48.11,11.68.11,15.49v14.34q0,11.41-.06,20.78T47,159.5V160H68.16v-.51Q68.09,154.75,68,145c-.06-6.49-.09-13.28-.09-20.17,0-6.14,0-11.19.06-15s.1-8.72.18-14.88C74.63,95,80.31,95,85,95s8.06.06,9.77.06h.5V77.41h-.5l-13.7,0q-11.33,0-23.71,0l-21.54,0-15.57,0h-.5V95.07h.5L29.63,95C34.81,95,40.65,95,47,95Z" transform="translate(-4.97 0)"/><path class="cls-1" d="M221,1a23,23,0,0,1,23,23V216a23,23,0,0,1-23,23H29A23,23,0,0,1,6,216V24A23,23,0,0,1,29,1H221M184,143.44c-2.55,0-5.46-.1-8.65-.28-4-.22-5.16-.33-5.47-.38l-1.31-.22.15,1.32,1.83,16.41.09.82.82.07c1,.08,3,.19,6.05.34s6.51.21,10.33.21a93.9,93.9,0,0,0,15.89-1.35,45.07,45.07,0,0,0,13.39-4.26A28,28,0,0,0,227,147.8a20.22,20.22,0,0,0,3.7-12.15,20.47,20.47,0,0,0-3-11,25.81,25.81,0,0,0-9-8.33c-2.43-1.4-4.93-2.69-7.44-3.83s-4.69-2.17-6.51-3.09a20.12,20.12,0,0,1-5.69-4,5.37,5.37,0,0,1-1.47-3.59,4.91,4.91,0,0,1,1.29-3.47A8.49,8.49,0,0,1,202.68,96a35.1,35.1,0,0,1,5.84-1.43,42.86,42.86,0,0,1,6.41-.47c3.25,0,6,.09,8.16.27s3.83.29,4.86.34l1.18,0L229,93.59l-2.07-16.42-.1-.77-.77-.09c-.69-.09-2.3-.18-4.94-.29s-5.72-.15-9.28-.15A72.66,72.66,0,0,0,192,78.29a33.53,33.53,0,0,0-13.49,7A21.7,21.7,0,0,0,173.12,92a19.32,19.32,0,0,0-2,8.91,20.82,20.82,0,0,0,2.73,10.51,24.66,24.66,0,0,0,8.91,8.46,62.9,62.9,0,0,0,7.6,4c2.9,1.3,5.22,2.39,6.88,3.22a18.79,18.79,0,0,1,5.56,3.88,6.24,6.24,0,0,1,1.47,4.26,5.47,5.47,0,0,1-1.32,3.77,10.53,10.53,0,0,1-4.93,2.66,40.76,40.76,0,0,1-7,1.3,64.09,64.09,0,0,1-7,.49m-79.87,17.07h1c4.26,0,8.75,0,13.34-.06s9.29-.06,14.06-.06c6,0,12.28,0,18.7.06l12,.06h1V141.79h-1l-9.51.06c-5.05,0-10.36.06-15.77.06l-6.33,0-5.29,0c0-1.54,0-4.6-.06-9.66,0-6.08-.06-13.13-.06-21,0-5.27,0-11,.06-17s.08-11.55.12-16.48v-1H104.11l0,1c0,2.4.09,6.82.15,13.16s.09,15.05.09,25.67c0,5.87,0,12.86-.09,20.76s-.11,15.27-.15,22.12v1M57.4,77l-21.54,0-15.57,0h-1V95.57h1l9.35-.06c5,0,10.71-.06,16.88-.06.08,6.24.11,11.28.11,15v14.34c0,7.47,0,14.46-.06,20.78,0,6.16-.08,10.85-.12,13.94v1H68.67l0-1c0-3.17-.09-8-.15-14.49s-.09-13.28-.09-20.17c0-6.14,0-11.18.06-15q.06-5.49.17-14.39c6.27,0,11.79,0,16.4.06s8,.06,9.77.06h1V76.91h-1l-13.7,0Q69.79,77,57.4,77M221,0H29A24.07,24.07,0,0,0,5,24V216a24.07,24.07,0,0,0,24,24H221a24.07,24.07,0,0,0,24-24V24A24.07,24.07,0,0,0,221,0ZM184,144.44a66.35,66.35,0,0,0,7.14-.49,42.71,42.71,0,0,0,7.14-1.34,11.41,11.41,0,0,0,5.4-3,6.49,6.49,0,0,0,1.56-4.42,7.25,7.25,0,0,0-1.71-4.91,19.55,19.55,0,0,0-5.86-4.12q-2.57-1.29-6.93-3.24a61.62,61.62,0,0,1-7.48-3.9,23.58,23.58,0,0,1-8.57-8.12,19.74,19.74,0,0,1-2.6-10A18.36,18.36,0,0,1,174,92.46,20.74,20.74,0,0,1,179.1,86q4.83-4.4,13.13-6.78a71.35,71.35,0,0,1,19.59-2.38q5.37,0,9.24.15c2.59.1,4.21.2,4.86.28L228,93.72c-1,0-2.62-.16-4.82-.34s-4.94-.27-8.24-.27a43.45,43.45,0,0,0-6.56.48,35.91,35.91,0,0,0-6,1.47,9.42,9.42,0,0,0-4.24,2.56,6,6,0,0,0-1.56,4.15,6.38,6.38,0,0,0,1.71,4.24,20.93,20.93,0,0,0,6,4.25q2.81,1.39,6.56,3.11c2.5,1.14,5,2.4,7.36,3.78a24.8,24.8,0,0,1,8.66,8,20.72,20.72,0,0,1-.64,22.06,27,27,0,0,1-9.55,8,43.93,43.93,0,0,1-13.09,4.15,92.84,92.84,0,0,1-15.72,1.34q-5.73,0-10.28-.21c-3-.14-5-.26-6-.34l-1.84-16.42q.74.13,5.59.4c3.23.18,6.13.28,8.7.28Zm-58.6-66.65q-.06,7.38-.12,16.48t-.06,17q0,11.73.06,21t.06,10.65l6.28,0,6.34,0q8,0,15.78-.06l9.5-.06v16.72l-12-.06q-9.68-.06-18.71-.06-7.2,0-14.06.06t-13.34.06q.06-10.26.15-22.11t.09-20.77q0-16.06-.09-25.68t-.15-13.16ZM57.4,78q12.39,0,23.71,0l13.7,0V94.57c-1.7,0-5,0-9.76-.06s-10.6-.06-17.4-.06q-.12,9.58-.18,15.38t-.06,15q0,10.44.09,20.18t.15,14.49H47.45q.06-4.57.12-13.94t.06-20.79V110.44q0-5.93-.12-16-10,0-17.88.06l-9.34.06V77.91l15.56,0L57.4,78Z" transform="translate(-4.97 0)"/><g class="cls-2"><path class="cls-1" d="M322.52,128.12H280.16a16.09,16.09,0,0,0,2.66,8.7,18.53,18.53,0,0,0,7.9,6.5,33.05,33.05,0,0,0,7.84,2.35,54,54,0,0,0,9.07.7q3.9,0,6.77-.12l4.21-.18-1.89,13.36c-.85.08-2.29.18-4.3.28s-4.33.15-6.93.15a69.08,69.08,0,0,1-18.89-2.35,38.58,38.58,0,0,1-14.07-7.11,30.64,30.64,0,0,1-7.87-10,28.48,28.48,0,0,1-3-13.06,34.29,34.29,0,0,1,2.19-12.64A32.46,32.46,0,0,1,271,104.13a27,27,0,0,1,10.13-6.46,36.19,36.19,0,0,1,24.05-.4,23.9,23.9,0,0,1,8.91,5.58,26.25,26.25,0,0,1,6.41,10.59A47.79,47.79,0,0,1,322.52,128.12ZM305,119.94a16.15,16.15,0,0,0-3.69-9.52,11,11,0,0,0-8.64-3.54,11.93,11.93,0,0,0-8.85,3.51,17.29,17.29,0,0,0-4.51,9.55Z" transform="translate(-4.97 0)"/><path class="cls-1" d="M395.33,159.31H376.6q0-1.89.09-9.31t.09-11.75q0-3,0-8.63c0-3.73-.05-6.54-.09-8.46-.08-3.74-.72-6.46-1.93-8.14s-3.32-2.54-6.37-2.54a20.68,20.68,0,0,0-7.17,1.56,52.1,52.1,0,0,0-7.79,3.69c0,.25,0,2.52,0,6.84s0,7.93,0,10.86q0,6.6.12,15.81t.13,10.07H334.85q0-1.4.09-8.54T335,130q0-7.87-.06-16T334.85,97h18.37l-.06,5.8.06.12a71.68,71.68,0,0,1,12.27-5.37,37.14,37.14,0,0,1,11.41-2.13q8.43,0,13.4,5.22t5,14.06q0,7.4-.09,12.3t-.09,8.27q0,5.69.12,14T395.33,159.31Z" transform="translate(-4.97 0)"/><path class="cls-1" d="M454.84,146.37l-1.77,13.37c-.57,0-1.52.08-2.86.12s-3.1.06-5.25.06q-14.83,0-22.37-5.64t-7.54-16.82q0-7.14.06-13.21t.06-14H405V97h10.62V80.7h18V97H454.6V110.3H433.66c0,.89,0,2.68-.06,5.34s-.06,4.85-.06,6.56c0,1.34,0,3,0,4.91s0,4,0,6.08q0,6.65,3.73,9.92t13.73,3.26h3.78Z" transform="translate(-4.97 0)"/><path class="cls-1" d="M485.3,87.29H466V72.88H485.3Zm-.3,72H466.26q0-2.92.09-12.45t.09-17.82q0-7,0-14.71T466.26,97H485q-.08,8.73-.16,15.6t-.09,15.59q0,13.92.12,21.15C485,154.15,485,157.48,485,159.31Z" transform="translate(-4.97 0)"/><path class="cls-1" d="M555.13,126.87q0,14.94,0,23t0,9.39q-1,.13-7.93.58t-14.77.46a91.55,91.55,0,0,1-11.69-.86,41.6,41.6,0,0,1-10.95-2.74,22.27,22.27,0,0,1-8.79-6.44,14.62,14.62,0,0,1-3.18-9.37,15.32,15.32,0,0,1,3.39-10q3.39-4.16,10.59-6.84a57.88,57.88,0,0,1,11.9-2.87q7.08-1,12.82-1.46a9.74,9.74,0,0,0-1.74-5.4,10.07,10.07,0,0,0-5.28-3.27A28,28,0,0,0,524,110a64.93,64.93,0,0,0-7-.33q-3.72,0-6.35.12L505,110l1.65-13.61,3.91-.15q2.68-.09,7.57-.09a70.24,70.24,0,0,1,17.18,1.77,27.93,27.93,0,0,1,11.56,5.85,21.7,21.7,0,0,1,6.32,9.06Q555.12,118.15,555.13,126.87Zm-17.71,11.26v-4.55q0-2.6-.06-5.46c-1.18,0-3.27.28-6.28.7A31.52,31.52,0,0,0,523,131a13.23,13.23,0,0,0-4.49,3,7,7,0,0,0-2,5.13,7.84,7.84,0,0,0,1.8,5.43,11.8,11.8,0,0,0,4.67,3.11,23.71,23.71,0,0,0,4.7,1.1,40.25,40.25,0,0,0,5.68.37l1.83,0q1,0,2.19,0c0-.53,0-1.77,0-3.73S537.42,141,537.42,138.13Z" transform="translate(-4.97 0)"/><path class="cls-1" d="M591,159.31H572.22q0-4.27.09-18t.09-28.44q0-8.42,0-19.47t-.15-23.56H591q-.06,10.2-.12,21.37t-.06,20.93q0,15.87.09,28T591,159.31Z" transform="translate(-4.97 0)"/></g></svg>